<?xml version="1.0" encoding="UTF-8"?>
<svg width="464px" height="140px" viewBox="0 0 464 140" version="1.1" xmlns="http://www.w3.org/2000/svg" xmlns:xlink="http://www.w3.org/1999/xlink">
    <title>BTLG_logotype_color</title>
    <g id="jb" stroke="none" stroke-width="1" fill="none" fill-rule="evenodd">
        <g id="BTLG_logotype_color" fill-rule="nonzero">
            <path d="M131.997553,42 L132.002447,54 L74.0064505,54.024469 C59.9598331,54.0395704 48.5172195,65.1814101 48.0170426,79.1044759 L48,80.036709 L48,140 L36,140 L36,80.0325528 C36.0142823,59.4163405 52.4344588,42.6346791 72.9158988,42.0407202 L73.9975527,42.024473 L131.997553,42 Z M132,65.9999995 L132,77.9999995 L72,77.9999995 L72,104 L60,104 L60,65.9999995 L132,65.9999995 Z" id="3" fill="#4E9A7A" transform="translate(84.001224, 91.000000) scale(-1, -1) translate(-84.001224, -91.000000) "></path>
            <path d="M95.9974683,5.34121682e-07 L96.0025317,12.0000005 L38.0064505,12.0244695 C23.9598331,12.0395709 12.5172195,23.1814106 12.0170426,37.1044764 L12,38.0367095 L12,140.000001 L0,140.000001 L0,38.0325533 C0.0142822789,17.416341 16.4344588,0.634679613 36.9158187,0.0407207418 L37.9974683,0.0244735465 L95.9974683,5.34121682e-07 Z M96,24 L96,36 L36,36 L36,140 L24,140 L24,24 L96,24 Z" id="1" fill="#BEDA4D"></path>
            <path d="M131.997706,0 L132.002294,12 L74.0064505,12.0244691 C59.9598331,12.0395705 48.5172195,23.1814102 48.0170426,37.1044759 L48,38.0367091 L48,88 L36,88 L36,38.0325529 C36.0142823,17.4163406 52.4344588,0.634679175 72.916044,0.0407202126 L73.9977057,0.0244730124 L131.997706,0 Z M132,23.9999996 L132,35.9999996 L72,35.9999996 L72,87.9999996 L60,87.9999996 L60,23.9999996 L132,23.9999996 Z" id="2" fill="#7CC745" transform="translate(84.001147, 44.000000) scale(-1, -1) translate(-84.001147, -44.000000) "></path>
            <path d="M252,24 L252,36 L204,36 L204,24 L252,24 Z M252,3.27418093e-11 L252,12 L172,12 L172,3.27418093e-11 L252,3.27418093e-11 Z" id="5" fill="#587AE1"></path>
            <path d="M207.99678,8.6410455e-07 L208.00322,12.0000009 L170.008602,12.020388 C155.962193,12.0405249 144.520495,23.1829826 144.017253,37.1045775 L144,38.0367095 L144,140.000001 L132,140.000001 L132,38.0311671 C132.019044,17.4178773 148.435422,0.638055684 168.915211,0.0370228258 L169.99678,0.0203950425 L207.99678,8.6410455e-07 Z M208,24 L208,36 L168,36 L168,140 L156,140 L156,24 L208,24 Z" id="4" fill="#62C0DA" transform="translate(170.001610, 70.000001) scale(-1, 1) translate(-170.001610, -70.000001) "></path>
            <path d="M380,0 L380,12 L290.005338,12 C275.958613,12.0124948 264.515526,23.1540147 264.016934,37.0778413 L264,38.0101268 L264,139.973417 L252,139.973417 L252,38.0066874 C252.01182,17.3889635 268.433961,0.606350661 288.918198,0.0160503603 L290,0 L380,0 Z M346,23.9734172 L346,35.9734172 L288,35.972 L288,139.973417 L276,139.973417 L276,23.9734172 L346,23.9734172 Z" id="6" fill="#A964C9" transform="translate(316.000000, 69.986709) scale(1, -1) translate(-316.000000, -69.986709) "></path>
            <path d="M427.997305,0 L428.002695,12 L378.007037,12.0233559 C363.960477,12.0398305 352.518113,23.1818387 352.0171,37.1045034 L352,38.0367089 L352,102 C352,116.047242 363.139985,127.492602 377.067463,127.983587 L378,128 L452,128 L452,140 L378,140 C357.375021,140 340.587843,123.568424 340.015105,103.081914 L340,102 L340,38.0321747 C340.015581,17.4167594 356.434721,0.635599743 376.915676,0.0397115954 L377.997305,0.0233606031 L427.997305,0 Z M428,23.9999994 L428,35.9999994 L376,35.9999994 L376,103.999999 L452,103.999999 L452,115.999999 L364,115.999999 L364,23.9999994 L428,23.9999994 Z" id="7" fill="#E06E4C" transform="translate(396.000000, 70.000000) scale(1, -1) translate(-396.000000, -70.000000) "></path>
            <path d="M463.996629,52.0000009 L464.003371,64.0000009 L436.01106,64.0157225 C421.964891,64.0416152 410.524238,75.1847793 410.017493,89.1046931 L410,90.0367095 L410,140.000001 L398,140.000001 L398,90.0295823 C398.024486,69.4196328 414.436524,52.6419142 434.91512,52.0327964 L435.996629,52.0157336 L463.996629,52.0000009 Z M464,76 L464,88 L434,88 L434,140 L422,140 L422,76 L464,76 Z" id="8" fill="#E2BD38" transform="translate(431.001686, 96.000001) scale(-1, 1) translate(-431.001686, -96.000001) "></path>
        </g>
    </g>
</svg>