<?xml version="1.0" encoding="UTF-8"?>
<svg width="132px" height="140px" viewBox="0 0 132 140" version="1.1" xmlns="http://www.w3.org/2000/svg" xmlns:xlink="http://www.w3.org/1999/xlink">
    <title>BTLG_monogram_color</title>
    <g id="jb" stroke="none" stroke-width="1" fill="none" fill-rule="evenodd">
        <g id="BTLG_monogram_color" fill-rule="nonzero">
            <path d="M131.997553,42 L132.002447,54 L74.0064505,54.024469 C59.9598331,54.0395704 48.5172195,65.1814101 48.0170426,79.1044759 L48,80.036709 L48,140 L36,140 L36,80.0325528 C36.0142823,59.4163405 52.4344588,42.6346791 72.9158988,42.0407202 L73.9975527,42.024473 L131.997553,42 Z M132,65.9999995 L132,77.9999995 L72,77.9999995 L72,104 L60,104 L60,65.9999995 L132,65.9999995 Z" id="3" fill="#4E9A7A" transform="translate(84.001224, 91.000000) scale(-1, -1) translate(-84.001224, -91.000000) "></path>
            <path d="M95.9974683,5.34121682e-07 L96.0025317,12.0000005 L38.0064505,12.0244695 C23.9598331,12.0395709 12.5172195,23.1814106 12.0170426,37.1044764 L12,38.0367095 L12,140.000001 L0,140.000001 L0,38.0325533 C0.0142822789,17.416341 16.4344588,0.634679613 36.9158187,0.0407207418 L37.9974683,0.0244735465 L95.9974683,5.34121682e-07 Z M96,24 L96,36 L36,36 L36,140 L24,140 L24,24 L96,24 Z" id="1" fill="#BEDA4D"></path>
            <path d="M131.997706,0 L132.002294,12 L74.0064505,12.0244691 C59.9598331,12.0395705 48.5172195,23.1814102 48.0170426,37.1044759 L48,38.0367091 L48,88 L36,88 L36,38.0325529 C36.0142823,17.4163406 52.4344588,0.634679175 72.916044,0.0407202126 L73.9977057,0.0244730124 L131.997706,0 Z M132,23.9999996 L132,35.9999996 L72,35.9999996 L72,87.9999996 L60,87.9999996 L60,23.9999996 L132,23.9999996 Z" id="2" fill="#7CC745" transform="translate(84.001147, 44.000000) scale(-1, -1) translate(-84.001147, -44.000000) "></path>
        </g>
    </g>
</svg>