<?xml version="1.0" encoding="UTF-8"?>
<svg width="132px" height="140px" viewBox="0 0 132 140" version="1.1" xmlns="http://www.w3.org/2000/svg" xmlns:xlink="http://www.w3.org/1999/xlink">
    <title>BTLG_monogram_bw</title>
    <g id="jb" stroke="none" stroke-width="1" fill="none" fill-rule="evenodd">
        <g id="BTLG_monogram_bw" fill="#000000" fill-rule="nonzero">
            <path d="M132.002447,101.967447 C131.988165,122.583659 115.567989,139.365321 95.0865485,139.95928 L94.0048946,139.975527 L36.0048946,140 L36,128 L93.9959968,127.975531 C108.042614,127.96043 119.485228,116.81859 119.985405,102.895524 L120.002447,101.963291 L120.002222,77.6672901 C116.546715,80.9130636 112.484281,83.5203852 108.00326,85.3007802 L108.002447,116 L36.0024473,116 L36.0024473,104 L96.0024473,104 L96.0026397,87.9217987 C95.698113,87.9378872 95.3926361,87.9503947 95.0862503,87.9592798 L94.0045887,87.975527 L36.0045887,88 L36,76 L93.9958438,75.9755309 C108.042461,75.9604295 119.485075,64.8185898 119.985252,50.8955241 L120.002294,49.9632909 L120.002294,0 L132.002294,0 L132.002447,101.967447 Z M95.9974683,5.34121682e-07 L96.0025317,12.0000005 L38.0064505,12.0244695 C23.9598331,12.0395709 12.5172195,23.1814106 12.0170426,37.1044764 L12,38.0367095 L12,140.000001 L0,140.000001 L0,38.0325533 C0.0142822789,17.416341 16.4344588,0.634679613 36.9158187,0.0407207418 L37.9974683,0.0244735465 L95.9974683,5.34121682e-07 Z M96,24 L96,36 L36,36 L36,140 L24,140 L24,24 L96,24 Z M108.002294,4.38668394e-07 L108.002294,64.0000004 L36.0022943,64.0000004 L36.0022943,52.0000004 L96.0022943,52.0000004 L96.0022943,4.38668394e-07 L108.002294,4.38668394e-07 Z" id="Combined-Shape"></path>
        </g>
    </g>
</svg>